<svg width="48" height="48" viewBox="0 0 48 48" fill="none" xmlns="http://www.w3.org/2000/svg">
<path fill-rule="evenodd" clip-rule="evenodd" d="M23.9947 4.41895C12.4792 4.41895 3.14136 13.7549 3.14136 25.2722C3.14136 34.4857 9.11653 42.3024 17.4022 45.0599C18.4442 45.2529 18.827 44.6073 18.827 44.0567C18.827 43.5597 18.8078 41.9166 18.7988 40.1741C12.9973 41.4357 11.7732 37.7137 11.7732 37.7137C10.8245 35.3035 9.45786 34.6624 9.45786 34.6624C7.56565 33.3681 9.60049 33.3948 9.60049 33.3948C11.6943 33.5419 12.7971 35.5441 12.7971 35.5441C14.657 38.7319 17.6754 37.8102 18.8655 37.2774C19.0527 35.9297 19.5929 35.0095 20.1895 34.4888C15.5576 33.9617 10.6884 32.1734 10.6884 24.183C10.6884 21.9065 11.5031 20.0461 12.8372 18.5857C12.6207 18.0603 11.9068 15.9394 13.0392 13.0669C13.0392 13.0669 14.7904 12.5067 18.7751 15.2047C20.4386 14.7426 22.2227 14.5109 23.9948 14.5029C25.7669 14.5109 27.5522 14.7426 29.2187 15.2047C33.199 12.5067 34.9477 13.0669 34.9477 13.0669C36.0828 15.9394 35.3689 18.0603 35.1524 18.5857C36.4895 20.0461 37.2985 21.9064 37.2985 24.183C37.2985 32.1926 32.4201 33.9559 27.7764 34.4723C28.5243 35.1194 29.1907 36.3885 29.1907 38.3339C29.1907 41.1241 29.1668 43.3698 29.1668 44.0567C29.1668 44.6117 29.5421 45.2621 30.599 45.0573C38.8804 42.2968 44.848 34.4827 44.848 25.2722C44.848 13.7549 35.5114 4.41895 23.9947 4.41895Z" fill="black"/>
<path d="M11.0397 34.3595C10.9938 34.4634 10.8306 34.4944 10.6822 34.4233C10.5308 34.3552 10.4462 34.2139 10.495 34.11C10.5399 34.0034 10.7031 33.9737 10.8542 34.0449C11.0057 34.1131 11.092 34.2557 11.0397 34.3595Z" fill="black"/>
<path d="M11.8844 35.3019C11.785 35.3938 11.5903 35.3511 11.4583 35.2054C11.3218 35.06 11.2966 34.8654 11.3975 34.7721C11.5 34.68 11.6886 34.7231 11.825 34.8685C11.9617 35.0156 11.9883 35.2085 11.8844 35.3019Z" fill="black"/>
<path d="M12.7066 36.5027C12.5788 36.5917 12.3697 36.5083 12.2405 36.3228C12.1127 36.1373 12.1127 35.9149 12.2435 35.8257C12.3727 35.7367 12.5788 35.8169 12.7096 36.0008C12.8371 36.1894 12.8371 36.412 12.7066 36.5027Z" fill="black"/>
<path d="M13.8329 37.6632C13.7186 37.7892 13.475 37.7551 13.2971 37.5832C13.1146 37.4152 13.064 37.1765 13.1783 37.0504C13.2944 36.9242 13.5392 36.9596 13.7185 37.1303C13.8996 37.2982 13.9546 37.5383 13.8329 37.6632Z" fill="black"/>
<path d="M15.3869 38.3369C15.3363 38.5 15.102 38.5743 14.8659 38.5048C14.6298 38.4333 14.4758 38.2421 14.5232 38.0772C14.5721 37.9127 14.8077 37.8355 15.0455 37.9096C15.2813 37.9807 15.4357 38.1706 15.3869 38.3369Z" fill="black"/>
<path d="M17.0936 38.4618C17.0993 38.6337 16.899 38.7764 16.6512 38.7795C16.4019 38.7851 16.1999 38.646 16.1973 38.4766C16.1973 38.3029 16.3931 38.1619 16.6424 38.1576C16.8902 38.1528 17.0936 38.2911 17.0936 38.4618Z" fill="black"/>
<path d="M18.6818 38.1916C18.7114 38.3592 18.5389 38.5315 18.2927 38.5774C18.0507 38.6219 17.8268 38.5181 17.7958 38.3518C17.7658 38.1798 17.9411 38.0075 18.183 37.963C18.4295 37.9201 18.6503 38.0209 18.6818 38.1916Z" fill="black"/>
</svg>
